<svg width="500" height="500" viewBox="0 0 500 500" fill="none" xmlns="http://www.w3.org/2000/svg">
<path d="M0 20C0 8.95432 8.9543 0 20 0H480C491.046 0 500 8.9543 500 20V480C500 491.046 491.046 500 480 500H20C8.95432 500 0 491.046 0 480V20Z" fill="#4B7AFC"/>
<path d="M82.0707 351V147.364H125.125V231.384H212.525V147.364H255.48V351H212.525V266.881H125.125V351H82.0707ZM268.577 351V147.364H348.918C364.297 147.364 377.422 150.115 388.293 155.616C399.23 161.052 407.55 168.775 413.25 178.784C419.017 188.727 421.901 200.427 421.901 213.884C421.901 227.406 418.984 239.04 413.151 248.784C407.318 258.462 398.866 265.886 387.796 271.057C376.792 276.227 363.468 278.812 347.824 278.812H294.032V244.21H340.864C349.084 244.21 355.911 243.083 361.347 240.83C366.782 238.576 370.826 235.195 373.478 230.688C376.195 226.18 377.554 220.579 377.554 213.884C377.554 207.122 376.195 201.421 373.478 196.781C370.826 192.141 366.749 188.628 361.247 186.241C355.812 183.789 348.951 182.562 340.665 182.562H311.631V351H268.577ZM378.549 258.33L429.159 351H381.631L332.114 258.33H378.549Z" fill="white"/>
</svg>
